# xmcd
#
# Track frame offsets:
#	150
#	10773
#	20961
#	34036
#	45570
#	57814
#	64213
#	70443
#	83302
#	89491
#	103098
#	111975
#	118056
#	123419
#	134545
#	149296
#	168835
#	180973
#	192072
#
# Disc length: 2667 seconds
#
# Revision: 0
# Processed by: cddbd v1.4PL0 Copyright (c) Steve Scherf et al.
# Submitted via: MusicWizard 6.0.0
#
DISCID=050a6913
DTITLE=Johnny Cash - Gospel Road Cd 1v2
DYEAR=1973
DGENRE=Country
TTITLE0=Praise The Lord
TTITLE1=Gospel Road Part 1
TTITLE2=Gospel Road Part 2
TTITLE3=John The Baptist
TTITLE4=Gospel Road Part 3
TTITLE5=Jesus' First Miracle
TTITLE6=He Turned The Water Into Wine
TTITLE7=I Saw Men As Trees Walking
TTITLE8=Jesus Was A Carpenter
TTITLE9=Jesus' Teachings
TTITLE10=The Two Greatest Commandments
TTITLE11=John The Baptist Imprisonment And Death
TTITLE12=Jesus Cleanses Temple
TTITLE13=Come Unto Me
TTITLE14=Help Part 1/ Kris Kristofferson
TTITLE15=Sermon On The Mount
TTITLE16=Introducing Mary Magdalene
TTITLE17=Follow Me/ June Carter Cash
TTITLE18=Magdalene Speaks Again
EXTD=(c)1973 CBS
EXTT0=
EXTT1=
EXTT2=
EXTT3=
EXTT4=
EXTT5=
EXTT6=
EXTT7=
EXTT8=
EXTT9=
EXTT10=
EXTT11=
EXTT12=
EXTT13=
EXTT14=
EXTT15=
EXTT16=
EXTT17=
EXTT18=
PLAYORDER=
